<svg xmlns="http://www.w3.org/2000/svg" xmlns:xlink="http://www.w3.org/1999/xlink" width="18.631" height="22.866" viewBox="0 0 18.631 22.866">
  <defs>
    <clipPath id="clip-path">
      <rect id="사각형_24178" data-name="사각형 24178" width="9.855" height="4.619" fill="none"/>
    </clipPath>
  </defs>
  <g id="그룹_5229" data-name="그룹 5229" transform="translate(-3.628 -1.815)">
    <g id="합치기_3" data-name="합치기 3" transform="translate(3.629 1.815)" fill="none">
      <path d="M1,17.784a1,1,0,0,1-1-1V16.7a3.994,3.994,0,0,1,1.694-3.268V9.316a7.625,7.625,0,0,1,5.117-7.2,2.541,2.541,0,0,1,5.01,0,7.625,7.625,0,0,1,5.116,7.2v4.119A4,4,0,0,1,18.631,16.7v.081a1,1,0,0,1-1,1Z" stroke="none"/>
      <path d="M 17.09534645080566 16.28400039672852 C 16.98440742492676 15.63461780548096 16.61894607543945 15.04662704467773 16.07134056091309 14.65958976745605 L 15.43710041046143 14.21133041381836 L 15.43710041046143 13.43465995788574 L 15.43710041046143 9.315899848937988 C 15.43710041046143 6.711450099945068 13.7858304977417 4.387040138244629 11.3281307220459 3.531880140304565 L 10.48959064483643 3.240110158920288 L 10.34195041656494 2.364610195159912 C 10.25747108459473 1.863620162010193 9.825950622558594 1.500000238418579 9.315900802612305 1.500000238418579 C 8.805891036987305 1.500000238418579 8.374370574951172 1.863620162010193 8.289830207824707 2.36460018157959 L 8.14210033416748 3.24012017250061 L 7.303470611572266 3.531780242919922 C 4.845350742340088 4.386690139770508 3.193800687789917 6.711140155792236 3.193800687789917 9.315899848937988 L 3.193800687789917 13.43465042114258 L 3.193800687789917 14.21140003204346 L 2.559450626373291 14.65966033935547 C 2.011894702911377 15.04658126831055 1.6464684009552 15.63457202911377 1.535543084144592 16.28400039672852 L 17.09534645080566 16.28400039672852 M 17.63100051879883 17.78400039672852 L 0.9999006390571594 17.78400039672852 C 0.4473006725311279 17.78400039672852 6.68334962483641e-07 17.33670043945313 6.68334962483641e-07 16.78409957885742 L 6.68334962483641e-07 16.70310020446777 C 6.68334962483641e-07 15.35251045227051 0.6690806746482849 14.15876007080078 1.693800687789917 13.43465042114258 L 1.693800687789917 9.315899848937988 C 1.693800687789917 5.983970165252686 3.831390619277954 3.151200294494629 6.81074047088623 2.115020275115967 C 7.013300895690918 0.9145702123641968 8.057870864868164 1.983642619052262e-07 9.315900802612305 1.983642619052262e-07 C 10.57401084899902 1.983642619052262e-07 11.61862087249756 0.9146202206611633 11.82107067108154 2.115190267562866 C 14.79961109161377 3.151570081710815 16.93710136413574 5.984220027923584 16.93710136413574 9.315899848937988 L 16.93710136413574 13.43465995788574 C 17.96165084838867 14.15879058837891 18.63090133666992 15.35264015197754 18.63090133666992 16.70310020446777 L 18.63090133666992 16.78409957885742 C 18.63090133666992 17.33670043945313 18.18360137939453 17.78400039672852 17.63100051879883 17.78400039672852 Z" stroke="none" fill="#fff"/>
    </g>
    <g id="마스크_그룹_1" data-name="마스크 그룹 1" transform="translate(17.872 24.68) rotate(180)" clip-path="url(#clip-path)">
      <g id="타원_513" data-name="타원 513" transform="translate(1.463 1.155)" fill="none" stroke="#fff" stroke-width="1.5">
        <ellipse cx="3.387" cy="3.387" rx="3.387" ry="3.387" stroke="none"/>
        <ellipse cx="3.387" cy="3.387" rx="2.637" ry="2.637" fill="none"/>
      </g>
    </g>
  </g>
</svg>
